<svg width="680" viewBox="0 0 680 980" xmlns="http://www.w3.org/2000/svg" style="font-family: -apple-system, BlinkMacSystemFont, 'Segoe UI', sans-serif; background: #fff;">
  <style>
    .th { font-size: 14px; font-weight: 500; fill: #1a1a1a; }
    .ts { font-size: 12px; fill: #666; }
    .purple-box { fill: #EEEDFE; stroke: #534AB7; stroke-width: 0.5; }
    .teal-box { fill: #E1F5EE; stroke: #0F6E56; stroke-width: 0.5; }
    .coral-box { fill: #FAECE7; stroke: #993C1D; stroke-width: 0.5; }
    .gray-box { fill: #F1EFE8; stroke: #5F5E5A; stroke-width: 0.5; }
    .blue-box { fill: #E6F1FB; stroke: #185FA5; stroke-width: 0.5; }
    .green-box { fill: #EAF3DE; stroke: #3B6D11; stroke-width: 0.5; }
    .red-box { fill: #FCEBEB; stroke: #A32D2D; stroke-width: 0.5; }
    .th-purple { font-size: 14px; font-weight: 500; fill: #3C3489; }
    .ts-purple { font-size: 12px; fill: #534AB7; }
    .th-teal { font-size: 14px; font-weight: 500; fill: #085041; }
    .ts-teal { font-size: 12px; fill: #0F6E56; }
    .th-coral { font-size: 14px; font-weight: 500; fill: #712B13; }
    .ts-coral { font-size: 12px; fill: #993C1D; }
    .th-gray { font-size: 14px; font-weight: 500; fill: #444441; }
    .ts-gray { font-size: 12px; fill: #5F5E5A; }
    .th-blue { font-size: 14px; font-weight: 500; fill: #0C447C; }
    .ts-blue { font-size: 12px; fill: #185FA5; }
    .th-green { font-size: 14px; font-weight: 500; fill: #27500A; }
    .ts-green { font-size: 12px; fill: #3B6D11; }
    .th-red { font-size: 14px; font-weight: 500; fill: #791F1F; }
    .ts-red { font-size: 12px; fill: #A32D2D; }
    .arr { stroke: #888; stroke-width: 1.5; }
    line.arr { marker-end: url(#a4); }
  </style>
  <defs><marker id="a4" viewBox="0 0 10 10" refX="8" refY="5" markerWidth="6" markerHeight="6" orient="auto-start-reverse"><path d="M2 1L8 5L2 9" fill="none" stroke="#888" stroke-width="1.5" stroke-linecap="round" stroke-linejoin="round"/></marker></defs>

  <text class="th" x="340" y="24" text-anchor="middle">MindLayer — complete data flow</text>

  <rect class="purple-box" x="50" y="44" width="140" height="50" rx="8"/>
  <text class="th-purple" x="120" y="62" text-anchor="middle" dominant-baseline="central">Text input</text>
  <text class="ts-purple" x="120" y="82" text-anchor="middle" dominant-baseline="central">Brain dump</text>
  <rect class="purple-box" x="210" y="44" width="140" height="50" rx="8"/>
  <text class="th-purple" x="280" y="62" text-anchor="middle" dominant-baseline="central">Quick record</text>
  <text class="ts-purple" x="280" y="82" text-anchor="middle" dominant-baseline="central">Hold-to-talk</text>
  <rect class="purple-box" x="370" y="44" width="150" height="50" rx="8"/>
  <text class="th-purple" x="445" y="62" text-anchor="middle" dominant-baseline="central">Live convo</text>
  <text class="ts-purple" x="445" y="82" text-anchor="middle" dominant-baseline="central">Vapi voice call</text>
  <rect class="purple-box" x="540" y="44" width="100" height="50" rx="8"/>
  <text class="th-purple" x="590" y="62" text-anchor="middle" dominant-baseline="central">Find help</text>
  <text class="ts-purple" x="590" y="82" text-anchor="middle" dominant-baseline="central">Therapist</text>

  <line x1="120" y1="94" x2="120" y2="128" class="arr"/>
  <line x1="280" y1="94" x2="280" y2="128" class="arr"/>

  <rect class="purple-box" x="50" y="128" width="140" height="40" rx="6"/>
  <text class="th-purple" x="120" y="152" text-anchor="middle" dominant-baseline="central">Mood slider (1-5)</text>
  <rect class="teal-box" x="210" y="128" width="140" height="40" rx="6"/>
  <text class="th-teal" x="280" y="152" text-anchor="middle" dominant-baseline="central">/api/deepgram/stt</text>

  <line x1="120" y1="168" x2="120" y2="200" class="arr"/>
  <line x1="280" y1="168" x2="280" y2="200" class="arr"/>
  <path d="M120 200 L120 208 L200 208" fill="none" class="arr"/>
  <path d="M280 200 L280 208 L200 208" fill="none" class="arr"/>
  <line x1="200" y1="208" x2="200" y2="232" class="arr"/>

  <rect class="red-box" x="105" y="232" width="190" height="50" rx="8"/>
  <text class="th-red" x="200" y="250" text-anchor="middle" dominant-baseline="central">Crisis keyword check</text>
  <text class="ts-red" x="200" y="270" text-anchor="middle" dominant-baseline="central">Client-side, instant</text>

  <line x1="295" y1="257" x2="360" y2="257" stroke="#A32D2D" stroke-width="1.5" marker-end="url(#a4)"/>
  <rect class="red-box" x="362" y="237" width="130" height="40" rx="6"/>
  <text class="th-red" x="427" y="261" text-anchor="middle" dominant-baseline="central">Crisis overlay</text>
  <text class="ts" x="338" y="250" dominant-baseline="central">yes</text>

  <text class="ts" x="200" y="298" text-anchor="middle">no crisis</text>
  <line x1="200" y1="282" x2="200" y2="320" class="arr"/>

  <rect class="teal-box" x="40" y="320" width="460" height="100" rx="12"/>
  <text class="th-teal" x="270" y="344" text-anchor="middle">FastAPI proxy (keys server-side)</text>
  <rect class="teal-box" x="60" y="358" width="130" height="44" rx="6"/>
  <text class="th-teal" x="125" y="374" text-anchor="middle" dominant-baseline="central">/api/memory</text>
  <text class="ts-teal" x="125" y="392" text-anchor="middle" dominant-baseline="central">Load user profile</text>
  <rect class="teal-box" x="200" y="358" width="130" height="44" rx="6"/>
  <text class="th-teal" x="265" y="374" text-anchor="middle" dominant-baseline="central">/api/claude</text>
  <text class="ts-teal" x="265" y="392" text-anchor="middle" dominant-baseline="central">Analyze + respond</text>
  <rect class="teal-box" x="340" y="358" width="150" height="44" rx="6"/>
  <text class="th-teal" x="415" y="374" text-anchor="middle" dominant-baseline="central">/api/hume (parallel)</text>
  <text class="ts-teal" x="415" y="392" text-anchor="middle" dominant-baseline="central">48 emotions</text>

  <rect class="teal-box" x="520" y="320" width="120" height="50" rx="6"/>
  <text class="th-teal" x="580" y="338" text-anchor="middle" dominant-baseline="central">NPPES</text>
  <text class="ts-teal" x="580" y="358" text-anchor="middle" dominant-baseline="central">Free API</text>

  <line x1="270" y1="420" x2="270" y2="460" class="arr"/>

  <rect class="blue-box" x="60" y="460" width="200" height="70" rx="8"/>
  <text class="th-blue" x="160" y="482" text-anchor="middle" dominant-baseline="central">Claude response</text>
  <text class="ts-blue" x="160" y="500" text-anchor="middle" dominant-baseline="central">Acknowledgment, insight</text>
  <text class="ts-blue" x="160" y="516" text-anchor="middle" dominant-baseline="central">Micro action, theme</text>
  <rect class="blue-box" x="280" y="460" width="200" height="70" rx="8"/>
  <text class="th-blue" x="380" y="482" text-anchor="middle" dominant-baseline="central">Hume emotions</text>
  <text class="ts-blue" x="380" y="500" text-anchor="middle" dominant-baseline="central">Top 5 raw emotions</text>
  <text class="ts-blue" x="380" y="516" text-anchor="middle" dominant-baseline="central">Coach response</text>

  <line x1="160" y1="530" x2="160" y2="558" class="arr"/>
  <line x1="380" y1="530" x2="380" y2="558" class="arr"/>
  <path d="M160 558 L160 566 L270 566" fill="none" class="arr"/>
  <path d="M380 558 L380 566 L270 566" fill="none" class="arr"/>
  <line x1="270" y1="566" x2="270" y2="594" class="arr"/>

  <text class="th" x="270" y="612" text-anchor="middle">UI updates</text>

  <rect class="green-box" x="50" y="624" width="110" height="36" rx="6"/>
  <text class="th-green" x="105" y="646" text-anchor="middle" dominant-baseline="central">Orb responds</text>
  <rect class="green-box" x="170" y="624" width="120" height="36" rx="6"/>
  <text class="th-green" x="230" y="646" text-anchor="middle" dominant-baseline="central">Theme shifts</text>
  <rect class="green-box" x="300" y="624" width="120" height="36" rx="6"/>
  <text class="th-green" x="360" y="646" text-anchor="middle" dominant-baseline="central">Typewriter</text>
  <rect class="green-box" x="430" y="624" width="120" height="36" rx="6"/>
  <text class="th-green" x="490" y="646" text-anchor="middle" dominant-baseline="central">Journal save</text>

  <line x1="270" y1="660" x2="270" y2="696" class="arr"/>

  <text class="th" x="270" y="714" text-anchor="middle">Persistence</text>

  <rect class="teal-box" x="50" y="728" width="190" height="50" rx="8"/>
  <text class="th-teal" x="145" y="746" text-anchor="middle" dominant-baseline="central">/api/memory/add</text>
  <text class="ts-teal" x="145" y="766" text-anchor="middle" dominant-baseline="central">Save to Supermemory</text>
  <rect class="gray-box" x="260" y="728" width="140" height="50" rx="8"/>
  <text class="th-gray" x="330" y="746" text-anchor="middle" dominant-baseline="central">localStorage</text>
  <text class="ts-gray" x="330" y="766" text-anchor="middle" dominant-baseline="central">Mood, journal</text>
  <rect class="teal-box" x="420" y="728" width="160" height="50" rx="8"/>
  <text class="th-teal" x="500" y="746" text-anchor="middle" dominant-baseline="central">Refresh user card</text>
  <text class="ts-teal" x="500" y="766" text-anchor="middle" dominant-baseline="central">Debounced 30s</text>

  <path d="M500 778 C500 820 145 820 145 800" fill="none" stroke="#0F6E56" stroke-width="1.5" stroke-dasharray="5 3" marker-end="url(#a4)"/>
  <text class="ts" x="320" y="816" text-anchor="middle">Memory loop: next session starts with updated user card</text>

  <rect x="40" y="860" width="600" height="90" rx="12" fill="none" stroke="#ccc" stroke-width="0.5" stroke-dasharray="6 3"/>
  <text class="th" x="340" y="884" text-anchor="middle">Therapist finder flow (separate path)</text>
  <text class="ts" x="340" y="906" text-anchor="middle">User enters city + state on Find Help screen</text>
  <text class="ts" x="340" y="924" text-anchor="middle">Frontend calls /api/therapists/search (proxied to NPPES NPI Registry — free)</text>
  <text class="ts" x="340" y="942" text-anchor="middle">Returns licensed providers with name, specialty, address, phone — cached 6 hours</text>
</svg>