<svg width="680" viewBox="0 0 680 960" xmlns="http://www.w3.org/2000/svg" style="font-family: -apple-system, BlinkMacSystemFont, 'Segoe UI', sans-serif; background: #fff;">
  <style>
    .th { font-size: 14px; font-weight: 500; fill: #1a1a1a; }
    .ts { font-size: 12px; fill: #666; }
    .p { fill: #EEEDFE; stroke: #534AB7; stroke-width: 0.5; }
    .t { fill: #E1F5EE; stroke: #0F6E56; stroke-width: 0.5; }
    .b { fill: #E6F1FB; stroke: #185FA5; stroke-width: 0.5; }
    .g { fill: #EAF3DE; stroke: #3B6D11; stroke-width: 0.5; }
    .r { fill: #FCEBEB; stroke: #A32D2D; stroke-width: 0.5; }
    .gy { fill: #F1EFE8; stroke: #5F5E5A; stroke-width: 0.5; }
    .ti { fill: #9FE1CB; stroke: #0F6E56; stroke-width: 0.5; }
    .tp { font-size: 14px; font-weight: 500; fill: #3C3489; }
    .sp { font-size: 12px; fill: #534AB7; }
    .tt { font-size: 14px; font-weight: 500; fill: #085041; }
    .st { font-size: 12px; fill: #0F6E56; }
    .tb { font-size: 14px; font-weight: 500; fill: #0C447C; }
    .sb { font-size: 12px; fill: #185FA5; }
    .tg { font-size: 14px; font-weight: 500; fill: #27500A; }
    .tr { font-size: 14px; font-weight: 500; fill: #791F1F; }
    .sr { font-size: 12px; fill: #A32D2D; }
    .tgy { font-size: 14px; font-weight: 500; fill: #444441; }
    .sgy { font-size: 12px; fill: #5F5E5A; }
    .arr { stroke: #888; stroke-width: 1.5; }
    line.arr { marker-end: url(#a); }
  </style>
  <defs><marker id="a" viewBox="0 0 10 10" refX="8" refY="5" markerWidth="6" markerHeight="6" orient="auto-start-reverse"><path d="M2 1L8 5L2 9" fill="none" stroke="#888" stroke-width="1.5" stroke-linecap="round" stroke-linejoin="round"/></marker></defs>

  <text class="th" x="340" y="24" text-anchor="middle">MindLayer — complete data flow</text>

  <rect class="p" x="40" y="44" width="145" height="50" rx="8"/>
  <text class="tp" x="113" y="62" text-anchor="middle" dominant-baseline="central">Text input</text>
  <text class="sp" x="113" y="82" text-anchor="middle" dominant-baseline="central">Brain dump</text>
  <rect class="p" x="200" y="44" width="145" height="50" rx="8"/>
  <text class="tp" x="273" y="62" text-anchor="middle" dominant-baseline="central">Quick record</text>
  <text class="sp" x="273" y="82" text-anchor="middle" dominant-baseline="central">Hold-to-talk</text>
  <rect class="p" x="360" y="44" width="145" height="50" rx="8"/>
  <text class="tp" x="433" y="62" text-anchor="middle" dominant-baseline="central">Live convo</text>
  <text class="sp" x="433" y="82" text-anchor="middle" dominant-baseline="central">Vapi voice call</text>
  <rect class="p" x="520" y="44" width="120" height="50" rx="8"/>
  <text class="tp" x="580" y="62" text-anchor="middle" dominant-baseline="central">Find help</text>
  <text class="sp" x="580" y="82" text-anchor="middle" dominant-baseline="central">Therapist</text>

  <line x1="113" y1="94" x2="113" y2="126" class="arr"/>
  <line x1="273" y1="94" x2="273" y2="126" class="arr"/>

  <rect class="p" x="40" y="126" width="145" height="38" rx="6"/>
  <text class="tp" x="113" y="149" text-anchor="middle" dominant-baseline="central">Mood slider (1-5)</text>
  <rect class="t" x="200" y="126" width="145" height="38" rx="6"/>
  <text class="tt" x="273" y="149" text-anchor="middle" dominant-baseline="central">/api/deepgram/stt</text>

  <path d="M113 164 L113 180 L193 180" fill="none" class="arr"/>
  <path d="M273 164 L273 180 L193 180" fill="none" class="arr"/>
  <line x1="193" y1="180" x2="193" y2="210" class="arr"/>

  <rect class="r" x="98" y="210" width="190" height="50" rx="8"/>
  <text class="tr" x="193" y="228" text-anchor="middle" dominant-baseline="central">Crisis keyword check</text>
  <text class="sr" x="193" y="248" text-anchor="middle" dominant-baseline="central">Client-side, instant</text>

  <line x1="288" y1="235" x2="358" y2="235" stroke="#A32D2D" stroke-width="1.5" marker-end="url(#a)"/>
  <rect class="r" x="360" y="215" width="130" height="40" rx="6"/>
  <text class="tr" x="425" y="239" text-anchor="middle" dominant-baseline="central">Crisis overlay</text>
  <text class="ts" x="328" y="230">yes</text>

  <text class="ts" x="193" y="278" text-anchor="middle">no crisis</text>
  <line x1="193" y1="260" x2="193" y2="302" class="arr"/>

  <rect class="t" x="40" y="302" width="470" height="106" rx="12"/>
  <text class="tt" x="275" y="326" text-anchor="middle">FastAPI proxy (keys server-side)</text>
  <rect class="ti" x="56" y="340" width="138" height="44" rx="6"/>
  <text class="tt" x="125" y="356" text-anchor="middle" dominant-baseline="central">/api/memory</text>
  <text class="st" x="125" y="374" text-anchor="middle" dominant-baseline="central">Load user profile</text>
  <rect class="ti" x="204" y="340" width="138" height="44" rx="6"/>
  <text class="tt" x="273" y="356" text-anchor="middle" dominant-baseline="central">/api/claude</text>
  <text class="st" x="273" y="374" text-anchor="middle" dominant-baseline="central">Analyze + respond</text>
  <rect class="ti" x="352" y="340" width="148" height="44" rx="6"/>
  <text class="tt" x="426" y="356" text-anchor="middle" dominant-baseline="central">/api/hume (parallel)</text>
  <text class="st" x="426" y="374" text-anchor="middle" dominant-baseline="central">48 emotions</text>

  <rect class="t" x="530" y="302" width="110" height="50" rx="6"/>
  <text class="tt" x="585" y="320" text-anchor="middle" dominant-baseline="central">NPPES</text>
  <text class="st" x="585" y="340" text-anchor="middle" dominant-baseline="central">Free API</text>

  <line x1="275" y1="408" x2="275" y2="448" class="arr"/>

  <rect class="b" x="55" y="448" width="210" height="74" rx="8"/>
  <text class="tb" x="160" y="468" text-anchor="middle" dominant-baseline="central">Claude response</text>
  <text class="sb" x="160" y="488" text-anchor="middle" dominant-baseline="central">Acknowledgment + insight</text>
  <text class="sb" x="160" y="506" text-anchor="middle" dominant-baseline="central">Micro action + theme</text>
  <rect class="b" x="285" y="448" width="210" height="74" rx="8"/>
  <text class="tb" x="390" y="468" text-anchor="middle" dominant-baseline="central">Hume emotions</text>
  <text class="sb" x="390" y="488" text-anchor="middle" dominant-baseline="central">Top 5 raw emotions</text>
  <text class="sb" x="390" y="506" text-anchor="middle" dominant-baseline="central">Coach response</text>

  <path d="M160 522 L160 540 L275 540" fill="none" class="arr"/>
  <path d="M390 522 L390 540 L275 540" fill="none" class="arr"/>
  <line x1="275" y1="540" x2="275" y2="570" class="arr"/>

  <text class="th" x="275" y="590" text-anchor="middle">Parallel UI updates</text>

  <rect class="g" x="45" y="604" width="110" height="36" rx="6"/>
  <text class="tg" x="100" y="626" text-anchor="middle" dominant-baseline="central">Orb responds</text>
  <rect class="g" x="165" y="604" width="110" height="36" rx="6"/>
  <text class="tg" x="220" y="626" text-anchor="middle" dominant-baseline="central">Theme shifts</text>
  <rect class="g" x="285" y="604" width="110" height="36" rx="6"/>
  <text class="tg" x="340" y="626" text-anchor="middle" dominant-baseline="central">Typewriter</text>
  <rect class="g" x="405" y="604" width="120" height="36" rx="6"/>
  <text class="tg" x="465" y="626" text-anchor="middle" dominant-baseline="central">Journal save</text>

  <line x1="275" y1="640" x2="275" y2="676" class="arr"/>
  <text class="th" x="275" y="694" text-anchor="middle">Parallel persistence</text>

  <rect class="t" x="45" y="710" width="190" height="50" rx="8"/>
  <text class="tt" x="140" y="728" text-anchor="middle" dominant-baseline="central">/api/memory/add</text>
  <text class="st" x="140" y="748" text-anchor="middle" dominant-baseline="central">Save to Supermemory</text>
  <rect class="gy" x="250" y="710" width="150" height="50" rx="8"/>
  <text class="tgy" x="325" y="728" text-anchor="middle" dominant-baseline="central">localStorage</text>
  <text class="sgy" x="325" y="748" text-anchor="middle" dominant-baseline="central">Mood, journal, streak</text>
  <rect class="t" x="415" y="710" width="160" height="50" rx="8"/>
  <text class="tt" x="495" y="728" text-anchor="middle" dominant-baseline="central">Refresh user card</text>
  <text class="st" x="495" y="748" text-anchor="middle" dominant-baseline="central">Debounced 30s</text>

  <path d="M495 760 C495 800 140 800 140 782" fill="none" stroke="#0F6E56" stroke-width="1.5" stroke-dasharray="5 3" marker-end="url(#a)"/>
  <text class="ts" x="318" y="798" text-anchor="middle">Memory loop: next session starts with updated user card</text>

  <rect x="40" y="840" width="600" height="88" rx="12" fill="none" stroke="#ccc" stroke-width="0.5" stroke-dasharray="6 3"/>
  <text class="th" x="340" y="864" text-anchor="middle">Therapist finder (separate path)</text>
  <text class="ts" x="340" y="886" text-anchor="middle">User enters city + state — frontend calls /api/therapists/search</text>
  <text class="ts" x="340" y="904" text-anchor="middle">Proxied to NPPES NPI Registry (free, no key) — cached 6 hours</text>
</svg>