<svg width="680" viewBox="0 0 680 840" xmlns="http://www.w3.org/2000/svg" style="font-family: -apple-system, BlinkMacSystemFont, 'Segoe UI', sans-serif; background: #fff;">
  <style>
    .th { font-size: 14px; font-weight: 500; fill: #1a1a1a; }
    .ts { font-size: 12px; fill: #666; }
    .purple-box { fill: #EEEDFE; stroke: #534AB7; stroke-width: 0.5; }
    .teal-box { fill: #E1F5EE; stroke: #0F6E56; stroke-width: 0.5; }
    .teal-inner { fill: #9FE1CB; stroke: #0F6E56; stroke-width: 0.5; }
    .coral-box { fill: #FAECE7; stroke: #993C1D; stroke-width: 0.5; }
    .coral-inner { fill: #F5C4B3; stroke: #993C1D; stroke-width: 0.5; }
    .gray-box { fill: #F1EFE8; stroke: #5F5E5A; stroke-width: 0.5; }
    .gray-inner { fill: #D3D1C7; stroke: #5F5E5A; stroke-width: 0.5; }
    .th-purple { font-size: 14px; font-weight: 500; fill: #3C3489; }
    .ts-purple { font-size: 12px; fill: #534AB7; }
    .th-teal { font-size: 14px; font-weight: 500; fill: #085041; }
    .ts-teal { font-size: 12px; fill: #0F6E56; }
    .th-coral { font-size: 14px; font-weight: 500; fill: #712B13; }
    .ts-coral { font-size: 12px; fill: #993C1D; }
    .th-gray { font-size: 14px; font-weight: 500; fill: #444441; }
    .ts-gray { font-size: 12px; fill: #5F5E5A; }
    .arr { stroke: #888; stroke-width: 1.5; }
    line.arr { marker-end: url(#a); }
  </style>
  <defs><marker id="a" viewBox="0 0 10 10" refX="8" refY="5" markerWidth="6" markerHeight="6" orient="auto-start-reverse"><path d="M2 1L8 5L2 9" fill="none" stroke="#888" stroke-width="1.5" stroke-linecap="round" stroke-linejoin="round"/></marker></defs>

  <text class="th" x="340" y="24" text-anchor="middle">MindLayer — system architecture</text>

  <rect class="purple-box" x="40" y="40" width="600" height="145" rx="16"/>
  <text class="th-purple" x="340" y="64" text-anchor="middle">Frontend — React 18 + Vite + Three.js</text>
  <rect class="purple-box" x="60" y="80" width="82" height="38" rx="6"/>
  <text class="ts-purple" x="101" y="103" text-anchor="middle" dominant-baseline="central">Home</text>
  <rect class="purple-box" x="152" y="80" width="82" height="38" rx="6"/>
  <text class="ts-purple" x="193" y="103" text-anchor="middle" dominant-baseline="central">3D orb</text>
  <rect class="purple-box" x="244" y="80" width="82" height="38" rx="6"/>
  <text class="ts-purple" x="285" y="103" text-anchor="middle" dominant-baseline="central">Journal</text>
  <rect class="purple-box" x="336" y="80" width="82" height="38" rx="6"/>
  <text class="ts-purple" x="377" y="103" text-anchor="middle" dominant-baseline="central">Tracker</text>
  <rect class="purple-box" x="428" y="80" width="90" height="38" rx="6"/>
  <text class="ts-purple" x="473" y="103" text-anchor="middle" dominant-baseline="central">Find help</text>
  <rect class="purple-box" x="528" y="80" width="100" height="38" rx="6"/>
  <text class="ts-purple" x="578" y="103" text-anchor="middle" dominant-baseline="central">Crisis</text>
  <rect class="purple-box" x="60" y="130" width="100" height="34" rx="6"/>
  <text class="ts-purple" x="110" y="151" text-anchor="middle" dominant-baseline="central">Voice rec</text>
  <rect class="purple-box" x="170" y="130" width="100" height="34" rx="6"/>
  <text class="ts-purple" x="220" y="151" text-anchor="middle" dominant-baseline="central">Mood slider</text>
  <rect class="purple-box" x="280" y="130" width="110" height="34" rx="6"/>
  <text class="ts-purple" x="335" y="151" text-anchor="middle" dominant-baseline="central">Onboarding</text>
  <rect class="purple-box" x="400" y="130" width="110" height="34" rx="6"/>
  <text class="ts-purple" x="455" y="151" text-anchor="middle" dominant-baseline="central">Firebase auth</text>

  <text class="ts" x="340" y="204" text-anchor="middle">Vite proxy: /api/* requests</text>
  <line x1="340" y1="185" x2="340" y2="220" class="arr"/>

  <rect class="teal-box" x="40" y="228" width="600" height="190" rx="16"/>
  <text class="th-teal" x="340" y="252" text-anchor="middle">FastAPI backend proxy — all keys server-side</text>
  <rect class="teal-inner" x="60" y="268" width="130" height="50" rx="6"/>
  <text class="th-teal" x="125" y="286" text-anchor="middle" dominant-baseline="central">/api/claude</text>
  <text class="ts-teal" x="125" y="306" text-anchor="middle" dominant-baseline="central">AI analysis</text>
  <rect class="teal-inner" x="200" y="268" width="130" height="50" rx="6"/>
  <text class="th-teal" x="265" y="286" text-anchor="middle" dominant-baseline="central">/api/hume/*</text>
  <text class="ts-teal" x="265" y="306" text-anchor="middle" dominant-baseline="central">Emotion detect</text>
  <rect class="teal-inner" x="340" y="268" width="140" height="50" rx="6"/>
  <text class="th-teal" x="410" y="286" text-anchor="middle" dominant-baseline="central">/api/deepgram/*</text>
  <text class="ts-teal" x="410" y="306" text-anchor="middle" dominant-baseline="central">STT + TTS</text>
  <rect class="teal-inner" x="490" y="268" width="140" height="50" rx="6"/>
  <text class="th-teal" x="560" y="286" text-anchor="middle" dominant-baseline="central">/api/memory/*</text>
  <text class="ts-teal" x="560" y="306" text-anchor="middle" dominant-baseline="central">Supermemory</text>
  <rect class="teal-inner" x="60" y="332" width="175" height="50" rx="6"/>
  <text class="th-teal" x="148" y="350" text-anchor="middle" dominant-baseline="central">/api/therapists/search</text>
  <text class="ts-teal" x="148" y="370" text-anchor="middle" dominant-baseline="central">NPPES providers</text>
  <rect class="teal-inner" x="245" y="332" width="185" height="50" rx="6"/>
  <text class="th-teal" x="338" y="350" text-anchor="middle" dominant-baseline="central">/api/therapists/facilities</text>
  <text class="ts-teal" x="338" y="370" text-anchor="middle" dominant-baseline="central">SAMHSA locator</text>
  <rect class="teal-inner" x="440" y="332" width="190" height="50" rx="6"/>
  <text class="th-teal" x="535" y="350" text-anchor="middle" dominant-baseline="central">/api/crisis/resources</text>
  <text class="ts-teal" x="535" y="370" text-anchor="middle" dominant-baseline="central">Hardcoded, always on</text>
  <text class="ts" x="340" y="406" text-anchor="middle">6-hour in-memory cache for therapist results</text>

  <line x1="340" y1="418" x2="340" y2="454" class="arr"/>

  <rect class="coral-box" x="40" y="462" width="600" height="100" rx="16"/>
  <text class="th-coral" x="340" y="486" text-anchor="middle">External services (keys held by backend)</text>
  <rect class="coral-inner" x="60" y="500" width="90" height="38" rx="6"/>
  <text class="th-coral" x="105" y="523" text-anchor="middle" dominant-baseline="central">Claude</text>
  <rect class="coral-inner" x="160" y="500" width="80" height="38" rx="6"/>
  <text class="th-coral" x="200" y="523" text-anchor="middle" dominant-baseline="central">Hume AI</text>
  <rect class="coral-inner" x="250" y="500" width="96" height="38" rx="6"/>
  <text class="th-coral" x="298" y="523" text-anchor="middle" dominant-baseline="central">Deepgram</text>
  <rect class="coral-inner" x="356" y="500" width="110" height="38" rx="6"/>
  <text class="th-coral" x="411" y="523" text-anchor="middle" dominant-baseline="central">Supermemory</text>
  <rect class="coral-inner" x="476" y="500" width="68" height="38" rx="6"/>
  <text class="th-coral" x="510" y="523" text-anchor="middle" dominant-baseline="central">NPPES</text>
  <rect class="coral-inner" x="554" y="500" width="76" height="38" rx="6"/>
  <text class="th-coral" x="592" y="523" text-anchor="middle" dominant-baseline="central">SAMHSA</text>

  <line x1="170" y1="562" x2="170" y2="598" class="arr"/>
  <line x1="500" y1="562" x2="500" y2="598" class="arr"/>

  <rect class="gray-box" x="40" y="606" width="260" height="86" rx="16"/>
  <text class="th-gray" x="170" y="630" text-anchor="middle">Persistence</text>
  <rect class="gray-inner" x="60" y="648" width="106" height="30" rx="6"/>
  <text class="ts-gray" x="113" y="667" text-anchor="middle" dominant-baseline="central">localStorage</text>
  <rect class="gray-inner" x="176" y="648" width="110" height="30" rx="6"/>
  <text class="ts-gray" x="231" y="667" text-anchor="middle" dominant-baseline="central">Firebase Auth</text>

  <rect class="gray-box" x="380" y="606" width="260" height="86" rx="16"/>
  <text class="th-gray" x="510" y="630" text-anchor="middle">Public keys (browser-safe)</text>
  <rect class="gray-inner" x="400" y="648" width="106" height="30" rx="6"/>
  <text class="ts-gray" x="453" y="667" text-anchor="middle" dominant-baseline="central">Firebase config</text>
  <rect class="gray-inner" x="516" y="648" width="110" height="30" rx="6"/>
  <text class="ts-gray" x="571" y="667" text-anchor="middle" dominant-baseline="central">Vapi public key</text>

  <text class="ts" x="340" y="726" text-anchor="middle">Zero secret keys in the browser JS bundle</text>

  <rect class="purple-box" x="120" y="748" width="100" height="26" rx="13"/>
  <text class="ts-purple" x="170" y="765" text-anchor="middle" dominant-baseline="central">Frontend</text>
  <rect class="teal-inner" x="240" y="748" width="120" height="26" rx="13"/>
  <text class="ts-teal" x="300" y="765" text-anchor="middle" dominant-baseline="central">Proxy (keys)</text>
  <rect class="coral-inner" x="380" y="748" width="110" height="26" rx="13"/>
  <text class="ts-coral" x="435" y="765" text-anchor="middle" dominant-baseline="central">External APIs</text>
  <rect class="gray-inner" x="510" y="748" width="100" height="26" rx="13"/>
  <text class="ts-gray" x="560" y="765" text-anchor="middle" dominant-baseline="central">Persistence</text>
</svg>